<svg width="43" height="43" fill="none" xmlns="http://www.w3.org/2000/svg"><path fill-rule="evenodd" clip-rule="evenodd" d="M19.833.107a8.393 8.393 0 00-5.703 4.404 10.46 10.46 0 00-.597 1.463l-.223.738-.007 3.43c-.007 3.318-.001 3.45.179 4.09.437 1.552 1.557 3.33 2.651 4.206l.506.406v2.084c0 1.571-.026 2.103-.103 2.16-.057.043-.903.236-1.88.43-4.042.804-6.59 1.396-7.268 1.69-1.519.657-3.052 1.882-3.868 3.09-.411.61-.928 1.634-1.117 2.214-.26.8-2.117 10.627-2.117 11.208 0 .032.096.172.214.312l.214.254H42.23l.17-.218a.905.905 0 00.172-.517c0-.332-.929-5.482-1.567-8.692-.608-3.056-1.062-4.03-2.6-5.583-.879-.886-1.643-1.432-2.669-1.907-.663-.306-3.139-.914-7.163-1.758a215.587 215.587 0 01-2.16-.459c-.145-.04-.212-1.057-.18-2.734l.027-1.5.794-.773c1.172-1.142 1.879-2.31 2.32-3.832.186-.644.19-.745.19-4.213l-.001-3.553-.235-.702C28.85 4.418 27.9 2.93 26.9 2.038 26.016 1.25 24.78.585 23.494.204c-.744-.22-2.86-.277-3.66-.097zm2.462 1.36c.94.091 1.427.231 2.19.629 1.285.669 2.359 1.735 2.976 2.955.354.7.625 1.515.535 1.605-.076.076-12.846.072-13.03-.003-.133-.055-.125-.112.104-.739.37-1.018.848-1.759 1.644-2.556.785-.785 1.55-1.283 2.468-1.603 1.04-.364 1.704-.425 3.113-.288zm5.403 6.767c.181.115-1.067 1.322-1.655 1.6-.763.362-1.334.404-5.084.375l-3.453-.026-.495-.231c-.64-.298-2.03-1.633-1.797-1.725.216-.085 12.348-.079 12.484.007zm-11.176 3.143c.454.17.564.173 5.019.15l4.554-.022.455-.232c.25-.128.727-.5 1.06-.827l.607-.594-.041 1.818c-.047 2.073-.108 2.395-.681 3.553-.825 1.669-2.249 2.895-4.043 3.481-.894.293-2.448.367-3.375.16a6.965 6.965 0 01-4.906-4.104c-.333-.801-.413-1.356-.471-3.287l-.048-1.602.703.666c.522.494.823.71 1.167.84zM19.9 20.28c1.242.277 3.128.127 4.394-.35l.521-.196v4.611l-.599.471c-1.119.881-2.139 1.186-3.427 1.023-.8-.1-1.388-.394-2.123-1.058l-.608-.55-.008-2.244-.007-2.242.64.203c.35.111.899.261 1.217.332zm-1.03 6.411c.764.365 1.666.556 2.617.554 1.702-.003 2.773-.476 4.253-1.878.4-.38.792-.682.882-.682.09 0 .356.045.592.099l.429.1-.037.912c-.03.722-.079 1.009-.234 1.368-.171.396-2.678 3.843-3.171 4.362l-.18.189-.39-.298c-1.32-1.008-2.878-1.035-4.184-.073-.43.316-.534.361-.625.269-.06-.061-.78-1.002-1.6-2.09-1.72-2.28-1.813-2.467-1.882-3.77l-.046-.875.57-.125.568-.124.91.883c.724.703 1.038.944 1.529 1.18zm-4.95-.553c.04.837.081 1.061.276 1.494.134.297.979 1.515 2.027 2.92l1.797 2.412.043 1.016c.042.974.057 1.041.35 1.6a3.56 3.56 0 001.668 1.601c.31.149.59.308.624.353.034.046.061.427.062.847.002 1.177.055 1.204 2.289 1.163 1.38-.026 1.422-.032 1.637-.233l.221-.207-.027-3.057-.028-3.057 1.38-1.84c1.54-2.051 2.293-3.141 2.503-3.622.09-.208.16-.667.195-1.29.03-.531.072-.983.093-1.004.045-.044 3.615.736 4.87 1.064 1.505.394 2.473.933 3.474 1.935a7.395 7.395 0 011.96 3.438c.272 1.092 1.213 6.388 1.146 6.455-.034.034-1.872.064-4.085.066l-4.023.003-.041-3.209-.042-3.21-.194-.157c-.311-.252-.8-.176-1.062.165-.077.1-.102 1.23-.104 4.656l-.002 4.524-9.477-.02-9.477-.022-.042-4.614-.041-4.614-.195-.158c-.31-.252-.8-.175-1.062.165-.075.098-.101.94-.103 3.304l-.003 3.173-4.05-.043c-2.228-.023-4.069-.061-4.091-.084-.042-.042.842-4.994 1.12-6.276.483-2.218 2.219-4.303 4.304-5.17.336-.14 1.094-.37 1.685-.51 2.132-.51 4.214-.976 4.295-.96.046.01.103.451.13 1.003zm8.2 6.086c.449.134 1.08.749 1.21 1.179.062.206.116 1.164.142 2.544l.041 2.214-.65-.024-.65-.024-.04-.748c-.055-.978-.162-1.15-.804-1.275-.67-.132-.925-.245-1.287-.572-.45-.407-.581-.704-.585-1.33-.005-.655.132-1.077.474-1.467.483-.55 1.325-.745 2.15-.497zm-1.149 1.34c-.284.285-.27.652.039.96.584.585 1.453-.048 1.066-.776-.232-.436-.764-.525-1.105-.184zm-10.444 6.667v.673l-4.24-.04c-2.333-.022-4.279-.064-4.325-.092-.057-.035-.054-.22.008-.567.079-.442.121-.523.298-.572.114-.032 2.019-.061 4.233-.066l4.026-.008v.672zm30.376-.065c.061.31.09.587.063.615-.028.027-1.972.051-4.322.054l-4.272.005-.024-.642-.024-.64 4.233.02 4.233.022.113.566z" fill="#FCFCFC"/></svg>