<svg width="54" height="42" fill="none" xmlns="http://www.w3.org/2000/svg"><path fill-rule="evenodd" clip-rule="evenodd" d="M26.265.938c-.336.236-.34.274-.34 4.351 0 3.91.016 4.129.306 4.42.393.392 1.134.392 1.527 0 .29-.291.305-.51.305-4.405 0-3.776-.022-4.118-.279-4.35-.351-.319-1.076-.326-1.519-.016zM7.746 7.864c-.245.246-.446.549-.446.674 0 .364 1.047 1.582 2.878 3.346 1.363 1.314 1.79 1.64 2.144 1.64.551 0 1.04-.402 1.174-.966.095-.401-.07-.606-2.25-2.787C9.579 8.105 8.79 7.418 8.541 7.418c-.192 0-.55.2-.796.446zM42.82 9.691c-1.966 1.954-2.288 2.34-2.288 2.747 0 .645.434 1.087 1.068 1.087.445 0 .743-.223 2.282-1.714 2.847-2.759 3.111-3.197 2.373-3.936-.252-.251-.613-.457-.803-.457-.24 0-1.038.689-2.632 2.273zm-17.58 4.248c-1.795.249-3.893 1.085-5.644 2.25-4.584 3.05-6.752 9.017-5.204 14.323.214.736.39 1.438.39 1.56 0 .457-.598.537-4.015.537-3.234 0-3.447.018-3.827.316-.486.383-.532 1.017-.11 1.537l.291.36h19.845c19.3 0 19.854-.007 20.166-.29.47-.425.43-1.205-.08-1.607-.382-.3-.592-.316-4.028-.316-2.789 0-3.663-.046-3.79-.199-.12-.145-.067-.504.197-1.336 1.832-5.77-.293-11.804-5.31-15.08-2.538-1.657-5.988-2.455-8.881-2.055zm4.433 2.563c.5.126 1.494.52 2.208.875 1.709.849 3.791 2.866 4.613 4.469.94 1.835 1.188 2.898 1.188 5.102 0 2.12-.157 2.887-.95 4.63l-.469 1.03H17.727l-.47-1.03c-.793-1.744-.95-2.509-.95-4.638 0-1.65.058-2.131.378-3.14.55-1.731 1.351-3.001 2.826-4.475 1.408-1.406 2.532-2.102 4.35-2.69 1.333-.433 4.349-.501 5.811-.133zM.988 26.171c-.342.377-.327 1.286.026 1.605.245.222.776.253 4.345.253 3.986 0 4.072-.007 4.378-.334a1.054 1.054 0 000-1.47c-.306-.327-.39-.334-4.404-.334-3.771 0-4.113.022-4.345.28zm43.258.026c-.168.168-.305.447-.305.62 0 .36.27.928.52 1.095.092.062 1.955.113 4.14.114 4.532.003 4.653-.024 4.653-1.051 0-1.076-.033-1.084-4.63-1.084-3.869 0-4.088.016-4.378.306zM16.38 39.087c-.452.453-.484.99-.086 1.482l.292.36 10.322.042 10.323.041.395-.395c.32-.32.377-.486.298-.879-.2-1.003.474-.942-10.862-.987l-10.304-.041-.378.377z" fill="#FCFCFC"/></svg>