<svg width="45" height="43" fill="none" xmlns="http://www.w3.org/2000/svg"><path fill-rule="evenodd" clip-rule="evenodd" d="M13.06.502a.649.649 0 00-.285.248c-.053.095-.883 3.621-1.845 7.836s-1.77 7.73-1.797 7.813c-.026.081-.102.148-.169.148-.067 0-1.354.798-2.858 1.773L3.37 20.093l-1.684 1.65c-2.01 1.97-1.982 1.903-1.16 2.734l.523.528.973.933 1.307 1.267 1.308 1.267.97.947 1.308 1.267 1.307 1.267.971.947 1.307 1.267 2.284 2.217 1.278 1.24 1.278 1.242 1.139.943s.367.225.738.5c.372.274.97.681 1.329.904.359.223.68.426.68.426l1.323.632s.288.075.56.166c1.028.343 2.209.37 2.943.068.169-.069.687-.508 1.153-.975.984-.988 1.074-1.192 1.015-2.315-.032-.604-.089-.828-.351-1.375-.596-1.24-1.633-2.506-2.984-3.643-.702-.59-.758-.662-.928-1.195a322.63 322.63 0 00-.87-2.659l-.664.188-.664.189 1.15 3.553.894.782c.935.817 1.825 1.745 2.26 2.354.35.49.776 1.38.776 1.624 0 .185-.025.197-.328.145-1.305-.223-3.033-1.135-4.919-2.597-.532-.412-2.943-2.667-5.734-5.364-5.208-5.03 1.375 1.265-3.885-3.715-.718-.094-1.125-.1-1.842-.194 4.17 4.536.404.62 4.837 4.913 2.956 2.862 5.188 4.953 5.75 5.385 1.833 1.41 3.517 2.353 4.877 2.735l.716.2-.437.418-.436.417-.633-.007c-.784-.01-1.707-.306-2.82-.904-2.208-1.19-2.796-1.705-10.974-9.626l-7.39-7.157.633-.615.633-.616 2.082 2.014c2.131 2.063.846.979 3.162 2.843.717.094 1.124.1 1.842.194A1518.17 1518.17 0 005.92 23.53c-1.717-1.675-2.01-1.997-1.933-2.123.05-.081 1.132-.827 2.404-1.657l2.313-1.508.361.754c1.089 2.275 2.674 4.211 3.957 4.833 1.114.541 2.354.548 3.75.022.368-.139.673-.244.68-.233.07.12.636 1.974.61 2-.02.018-.222.068-.45.109-.739.134-1.018.455-.825.949.139.353.434.443 1.145.348.579-.078.698-.048.698.174 0 .013-.236.07-.525.125-.388.074-.562.153-.662.302a.683.683 0 00.155.919c.217.156.285.162.828.075.447-.072.607-.071.654.004.102.16.019.209-.456.27-.714.092-1.016.49-.77 1.016.145.307.486.418.957.313.728-.163.948.498.948.498l.664-.189.664-.188s-.16-.511-.005-.568c.616-.227.33-1.257-.349-1.257-.324 0-.343-.146-.048-.379.523-.413.259-1.155-.417-1.174-.252-.007-.326-.044-.326-.162 0-.084.06-.153.131-.153.231 0 .481-.323.481-.622 0-.39-.3-.651-.749-.653h-.344l-.45-1.406-.452-1.405 1.643-3.805c1.935-4.48 1.794-4.365 1.794-4.365l-1.081-.5s-.868 1.742-1.915 4.181l-1.73 4.033-.654.319c-2.007.98-3.411.454-5.072-1.9-.63-.893-1.39-2.322-1.342-2.521.02-.079.525-2.297 1.124-4.93.6-2.633 1.105-4.802 1.124-4.82.02-.02.375.061.79.178 1.431.402 3.343.828 6.173 1.374 1.56.301 2.85.56 2.865.573.014.015-.151.437-.368.94-.216.501-.995 2.573-.995 2.573l1.08.5s5.73-12.994 5.73-13.31c0-.543-.746-.842-1.127-.45-.088.09-.626 1.254-1.195 2.584a229.736 229.736 0 01-1.055 2.45c-.02.028-10.603-2.442-10.712-2.501-.03-.016.039-.421.151-.901.274-1.17.27-1.45-.022-1.673-.247-.189-.402-.209-.704-.09zm5.57 5.23c2.67.626 4.92 1.167 5 1.202.13.055.095.182-.293 1.081-.242.56-.45 1.03-.464 1.044-.038.04-4.367-.783-6.123-1.163-1.814-.393-3.81-.914-3.923-1.024-.045-.043.021-.515.157-1.121.307-1.37.27-1.288.553-1.218.132.033 2.424.572 5.093 1.199zm12.444 6.822c-2.371.405-4.408 1.409-6.148 3.03-1.705 1.589-2.813 3.507-3.377 5.845-.252 1.045-.23 3.775.039 4.87a11.372 11.372 0 003.161 5.532 11.983 11.983 0 006.256 3.183c1.07.184 2.915.184 4.023-.002 3.672-.614 6.832-2.885 8.5-6.106 1.62-3.128 1.661-6.9.109-10.038-1.408-2.846-4.022-5.035-7.123-5.963-1.738-.52-3.706-.648-5.44-.351zm3.473 1.281c1.178.183 1.164.174 1.39.852.11.333.41 1.01.665 1.506l.465.9-.53.725c-.293.398-.621.842-.73.986l-.198.262-.684-.109c-.963-.153-2.893-.145-3.858.016l-.8.133-.255-.282c-.14-.155-.431-.49-.648-.743l-.394-.46.294-.669c.336-.761.701-1.887.788-2.428.046-.288.107-.385.28-.449.766-.282 3.088-.415 4.215-.24zm-6.233 1.744c-.159.462-.386 1.012-.505 1.221-.208.366-.24.386-.871.529-.598.135-2.02.326-2.08.279-.064-.05 1.568-1.585 2.037-1.916.484-.342 1.631-1.002 1.684-.969.012.008-.107.393-.265.856zm10.788.056c.27.198.683.523.918.72l.43.361-.35.001c-.193 0-.66-.044-1.037-.1-.667-.099-.694-.112-.912-.447-.214-.328-.719-1.348-.719-1.45 0-.093 1.18.554 1.67.915zm1.527 2.439l.966.001.35.573c.745 1.223 1.268 2.717 1.39 3.974l.057.59-.338.183c-.483.262-1.648 1.114-2.204 1.612l-.474.424-.938-.341-.938-.342-.056-.428c-.141-1.075-.738-2.767-1.39-3.943l-.302-.543.528-.73c.291-.403.62-.85.73-.996l.201-.265.726.114c.399.063 1.16.116 1.692.117zm-12.046 1.18l.619.713-.288.561c-.565 1.102-1.072 2.732-1.232 3.959l-.055.425-1.083.414-1.082.413-.654-.584a12.74 12.74 0 00-1.392-1.052l-.738-.467.036-.467a10.63 10.63 0 01.942-3.62l.236-.52.845-.058c.922-.063 2.266-.253 2.682-.38.145-.044.326-.073.404-.064.077.008.42.336.76.728zm6.27 1.057l.612.103.28.455c.61.99 1.338 3.061 1.338 3.808a.98.98 0 01-.222.584c-.497.633-2.63 2.182-3.474 2.522-.318.128-.349.124-.947-.123-1.156-.478-2.367-1.319-3.066-2.128-.356-.414-.36-.425-.306-.927.14-1.294 1.062-3.871 1.476-4.123.44-.267 3.103-.373 4.309-.171zm8.385 5.207c-.068.381-.223.993-.344 1.358-.231.696-.982 2.236-1.09 2.236-.074 0-.403-1.532-.469-2.178l-.044-.438.497-.471c.433-.411 1.52-1.257 1.56-1.215.008.008-.042.327-.11.708zm-19.728.316c.322.251.7.574.84.718.24.247.25.29.2.804-.067.708-.251 1.671-.318 1.671-.06 0-.513-.85-.792-1.484-.167-.379-.612-1.9-.612-2.09 0-.133.084-.086.682.38zm15.54.544l.875.322.06.581c.073.72.285 1.664.569 2.543l.216.669-.422.42c-.233.231-.732.648-1.11.926-.814.598-2.472 1.416-2.634 1.299-.825-.598-1.576-1.082-2.163-1.394l-.72-.382.024-1.104c.017-.739.059-1.125.129-1.168.057-.036.449-.265.87-.51 1.057-.613 1.702-1.085 2.54-1.857.394-.363.756-.661.804-.663.048-.002.481.141.962.318zm-8.733 1.687c.42.267 1.062.61 1.426.764.363.153.651.299.64.323-.013.025-.023.518-.023 1.097V31.3l-.677.312c-.737.34-1.622.858-2.147 1.257l-.332.252-.542-.233c-.846-.365-1.913-1.076-2.673-1.78l-.694-.644.126-.4c.21-.675.307-1.125.457-2.13l.143-.964 1.03-.399 1.03-.399.735.704c.405.387 1.08.922 1.5 1.188zm3.196 4.706c.558.273 1.492.848 1.448.891-.014.014-.455.067-.98.12a8.96 8.96 0 01-1.898.002c-1.228-.12-1.297-.147-.93-.37.246-.15 1.728-.893 1.8-.903a7.43 7.43 0 01.56.26z" fill="#FCFCFC"/></svg>