<svg width="45" height="34" fill="none" xmlns="http://www.w3.org/2000/svg"><path fill-rule="evenodd" clip-rule="evenodd" d="M13.276.215c-1.829.28-2.972.55-5.145 1.21l-1.935.586-1.136-.31C2.458.988 2.018.922 1.448 1.163c-.6.252-1.084.954-1.084 1.57 0 .233.21 1.214.466 2.181l.466 1.759S1.018 7.696.873 8.358c-.81 3.7-1.134 6.96.022 11.157.158.577.46 1.461.46 1.461l-.347 1.49c-.56 2.412-.572 2.599-.22 3.229.59 1.057 1.192 1.131 3.796.468l1.639-.418 1.851.568c1.019.312 1.875.586 1.904.61.028.024.007.52-.047 1.103-.093.994-.12 1.06-.43 1.06a1.98 1.98 0 00-.683.163c-.92.422-.359 2.525.936 3.502l.45.341 15.846.042c8.716.022 16.12.002 16.454-.046.45-.065.774-.24 1.242-.674.758-.7 1.012-1.251 1.012-2.19 0-.786-.309-1.137-.998-1.137-.356 0-.383-.046-.47-.808-.337-2.971-1.458-5.854-3.256-8.377-.73-1.026-3.372-3.745-3.638-3.745-.065 0-.15-1.186-.188-2.636-.06-2.291-.129-2.899-.52-4.662-.488-2.205-.489-2.125.046-4.137.602-2.265.53-2.778-.643-3.48-.907-.544-2.686.238-2.686.238l-2.11.535-1.53-.444c-1.82-.53-3.626-.9-6.275-1.288-2.355-.346-7.177-.382-9.214-.068zm9.284 1.97c2.081.272 3.844.644 5.988 1.261l1.73.498 1.955-.502c1.075-.276 1.982-.476 2.015-.443.032.033-.17.894-.45 1.914l-.507 1.854.423 1.779c.427 1.793.713 4 .713 5.507v.817l-1.097-.478c-1.272-.555-3.335-1.137-4.503-1.27l-.813-.092.71-.791c1.17-1.306 1.332-2.104.651-3.22-.5-.818-1.14-1.03-2.961-.979-1.466.042-1.62.073-2.071.419-.574.44-.945 1.157-.945 1.824 0 .537.554 1.496 1.238 2.14.24.227.437.456.437.508 0 .052-.33.134-.735.182-1.839.218-4.731 1.221-5.602 1.943-.326.271-.504.539-.504.76 0 .378.445.903.765.903.114 0 .824-.25 1.58-.557 2.501-1.015 4.47-1.361 6.94-1.219 7.099.41 13.022 6.098 13.83 13.283l.096.86H11.72l.12-.948c.277-2.206 1.26-4.824 2.503-6.67.327-.486 1.337-1.653 2.243-2.593 1.716-1.778 1.765-1.875 1.255-2.472-.506-.594-1.447-.116-3.118 1.587-1.603 1.634-3.276 4.355-3.95 6.424-.132.405-.312.738-.399.738-.087 0-1.052-.298-2.144-.662l-1.986-.66-1.85.446c-1.018.245-1.88.416-1.917.38-.036-.037.126-.932.36-1.99l.426-1.923-.325-.87c-.587-1.57-.805-3.15-.793-5.754.01-2.584.12-3.523.68-5.903L3.19 6.67l-.495-1.862c-.309-1.161-.437-1.862-.34-1.862.085 0 .987.222 2.005.494l1.85.494 1.509-.428c1.893-.535 5.029-1.19 6.675-1.392.691-.085 1.445-.18 1.675-.213.78-.108 4.876.07 6.492.283zM10.91 4.824c-.788.792-1.405 2.658-1.293 3.906.085.939.42 1.705 1.205 2.756.883 1.18.915 2.084.136 3.742-.48 1.023-.484 1.067-.114 1.541.578.74 1.34.307 2.038-1.157.3-.63.39-1.052.437-2.07.07-1.49-.14-2.12-1.128-3.41-.565-.738-.589-.81-.589-1.765 0-.824.08-1.17.459-2.014.489-1.086.469-1.41-.104-1.719-.413-.222-.688-.173-1.047.19zm5.867.139c-1.013 1.081-1.024 2.768-.025 4.088.515.68.562 1.005.236 1.633-.523 1.012-.26 1.818.593 1.818.73 0 1.49-1.219 1.49-2.389 0-.799-.233-1.461-.76-2.157-.426-.561-.453-1.111-.094-1.917.299-.672.25-1.044-.172-1.342-.452-.319-.786-.249-1.268.266zM41.16 4.71c-.425.3-.395.777.124 2.022.604 1.448.54 2.24-.276 3.354-.808 1.103-1.122 1.825-1.224 2.81-.105 1.011.266 2.405.915 3.432.486.77.95.962 1.478.614.461-.304.454-.865-.022-1.809a4.324 4.324 0 01-.435-1.649c-.064-.9-.054-.931.571-1.85 1.09-1.605 1.212-1.93 1.212-3.26 0-1.407-.338-2.448-1.076-3.316-.522-.614-.787-.686-1.267-.348zm-14.084 5.375c.967-.46 1.045.047.155 1.005l-.635.683-.621-.668c-.893-.961-.846-1.417.104-1.034.496.2.602.2.997.014zm15.1 21.11c-.329.142-27.16.486-29.736.006 3.071-.008 5.455-.104 14.17-.112 8.944-.008 15.724.038 15.566.106z" fill="#FCFCFC"/></svg>