<svg width="38" height="49" fill="none" xmlns="http://www.w3.org/2000/svg"><path fill-rule="evenodd" clip-rule="evenodd" d="M13.56.117c-.656.28-1.163.748-2.175 2.006-1.109 1.378-1.486 1.623-2.76 1.793-2.074.276-2.889.568-3.54 1.27-.653.704-.891 1.408-1.16 3.43-.17 1.277-.413 1.65-1.81 2.773C.351 12.81.055 13.274.058 14.628c.002.891.082 1.243.534 2.361.687 1.697.68 2.14-.056 4.074-.503 1.32-.57 1.627-.523 2.37.072 1.138.473 1.722 2.048 2.983 1.358 1.087 1.717 1.628 1.867 2.813.166 1.301.378 2.213.634 2.717.274.539 1.302 1.501 1.604 1.501.1 0 .183.098.183.217 0 .12-.748 2.243-1.66 4.718-.914 2.476-1.699 4.734-1.744 5.018-.071.446-.032.556.289.808.468.369.557.352 3.8-.699 1.643-.532 2.62-.784 2.742-.707.104.066.86 1.24 1.682 2.609 1.554 2.593 1.786 2.836 2.53 2.65.427-.108.44-.14 2.656-6.023 1.777-4.717 2.07-5.41 2.29-5.41.222 0 .528.724 2.28 5.387 2.193 5.836 2.238 5.938 2.668 6.045.753.19.975-.047 2.577-2.747.844-1.424 1.611-2.59 1.706-2.594.094-.003 1.308.36 2.697.805 3.233 1.037 3.308 1.05 3.773.684.489-.384.44-.656-.637-3.569-.464-1.255-1.236-3.357-1.716-4.672l-.871-2.39.506-.259c1.152-.587 1.677-1.56 1.953-3.62.228-1.695.497-2.151 1.942-3.292.678-.536 1.405-1.236 1.617-1.555.339-.513.383-.706.373-1.629-.009-.872-.098-1.265-.534-2.36-.67-1.683-.67-2.175.007-3.873.439-1.102.525-1.483.53-2.362.007-.946-.033-1.108-.407-1.65-.228-.33-.982-1.052-1.676-1.605-1.436-1.145-1.605-1.439-1.85-3.233-.395-2.878-1.277-3.754-4.175-4.141-1.735-.232-2.067-.427-3.236-1.895-.567-.712-1.29-1.466-1.606-1.675-.502-.333-.71-.381-1.623-.379-.891.002-1.243.082-2.361.534-1.674.678-2.167.679-3.873.01-1.39-.544-2.815-.741-3.437-.476zm2.908 2.431c1.782.702 2.754.765 4.128.27 2.76-.996 2.59-.953 3.026-.772.225.093.703.553 1.064 1.021.968 1.259 1.721 2.017 2.303 2.318.285.147 1.222.388 2.082.535 1.813.31 2.244.45 2.426.793.073.137.232.873.353 1.636.403 2.546.617 2.89 3.164 5.087.55.475.932.913.932 1.07 0 .147-.262.937-.582 1.756-.523 1.336-.582 1.607-.58 2.663.002 1.036.065 1.332.528 2.488.288.721.53 1.522.538 1.779.014.499-.133.664-2.09 2.344-1.213 1.042-1.49 1.59-1.838 3.634-.16.945-.351 1.83-.424 1.967-.178.333-.597.477-2.091.719-2.44.394-2.743.585-4.954 3.12-.719.824-.814.887-1.314.867-.297-.012-1.1-.253-1.784-.535-1.725-.712-2.697-.776-4.082-.27-2.742 1.003-2.606.973-3.104.704-.248-.133-.692-.564-.988-.957-1.563-2.077-2.277-2.54-4.413-2.854-1.521-.224-2.138-.422-2.356-.757-.102-.157-.284-.908-.404-1.668-.404-2.555-.732-3.118-2.697-4.638-1.394-1.079-1.518-1.36-1.107-2.514 1.01-2.83.997-2.777.928-3.705-.044-.593-.239-1.323-.572-2.144-.278-.685-.54-1.464-.584-1.731-.085-.528-.01-.614 2.267-2.588 1.054-.915 1.377-1.582 1.71-3.537.144-.852.297-1.66.34-1.794.134-.428.643-.638 2.064-.852 2.488-.375 3.175-.776 4.64-2.708 1.189-1.568 1.313-1.595 3.47-.747zm.197 3.188c-4.389.803-8.343 3.95-10.016 7.968-1.434 3.445-1.403 7.36.085 10.641 1.715 3.783 5.033 6.544 9.121 7.59 1.62.414 4.542.379 6.337-.076 4.692-1.19 8.454-4.954 9.69-9.693.483-1.858.514-4.383.075-6.188-.6-2.459-1.688-4.473-3.397-6.285-2.056-2.179-5.233-3.777-7.897-3.972-2.457-.18-2.949-.178-3.998.014zm4.347 2.044c2.128.38 4.03 1.369 5.7 2.965 2.548 2.433 3.723 5.415 3.523 8.939-.15 2.664-1.186 4.995-3.114 7.014-2.448 2.562-5.406 3.728-8.945 3.528-2.81-.16-5.294-1.32-7.322-3.423-2.036-2.11-3.066-4.392-3.221-7.138-.323-5.7 3.421-10.645 8.983-11.863 1.125-.247 3.084-.256 4.396-.022zm-2.688 3.722c-.177.176-.672 1-1.1 1.832a52.465 52.465 0 01-.89 1.683c-.061.095-.923.296-1.927.45-.998.153-1.928.319-2.067.368-.463.165-.736.502-.736.91 0 .331.282.69 1.529 1.948l1.529 1.543-.362 2.145-.36 2.146.432.386c.53.474.516.477 2.788-.703l1.752-.91 1.95.996c1.875.957 1.966.988 2.339.795.748-.387.752-.419.361-2.746l-.36-2.142 1.531-1.52c1.625-1.612 1.78-1.914 1.29-2.511-.242-.295-.735-.415-3.464-.848l-1.008-.16-.77-1.542c-.423-.849-.922-1.745-1.108-1.992-.408-.543-.889-.589-1.349-.128zm1.172 3.983c.72 1.49.842 1.583 2.333 1.787l1.275.174-.978.985c-1.085 1.092-1.087 1.1-.82 2.718.088.529.128.994.09 1.032-.04.038-.608-.188-1.266-.504l-1.195-.573-1.196.573c-.658.316-1.227.543-1.265.504-.039-.038.001-.503.089-1.032.262-1.589.26-1.596-.813-2.702l-.972-1.003 1.269-.173c1.483-.203 1.607-.297 2.326-1.786.262-.542.515-.985.561-.985.047 0 .3.443.562.985zm-9.582 18.84c.396.2.9.685 1.522 1.468 1.198 1.509 1.81 1.941 2.878 2.038.45.04 1.047.01 1.327-.067.489-.134.505-.128.397.157-.062.164-.657 1.76-1.322 3.548s-1.226 3.27-1.247 3.294c-.021.023-.46-.661-.975-1.522-1.57-2.623-1.665-2.74-2.202-2.74-.258 0-1.406.304-2.552.675-1.145.372-2.083.618-2.083.547 0-.122 2.315-6.465 2.707-7.415.164-.399.233-.443.573-.368.212.047.652.22.977.384zm20.959 3.629c.65 1.756 1.224 3.353 1.273 3.549l.09.356-2.095-.679c-1.153-.373-2.307-.68-2.564-.68-.542 0-.682.175-2.205 2.744-.51.862-.947 1.546-.968 1.521-.052-.06-2.115-5.516-2.432-6.428l-.247-.711.501.138c.276.076.861.112 1.302.08 1.055-.076 1.69-.526 2.944-2.087 1.121-1.394 1.31-1.545 2.147-1.716.602-.123.625-.115.845.297.123.233.757 1.86 1.409 3.616z" fill="#FCFCFC"/></svg>