<svg width="36" height="37" fill="none" xmlns="http://www.w3.org/2000/svg"><path fill-rule="evenodd" clip-rule="evenodd" d="M11.075 1.06c-.238.205-.243.227-.27 1.296l-.03 1.088H6.453a.863.863 0 00-.563.209.702.702 0 00-.244.528l-.042 8.732-.043 9.051-.655.276c-1.752.737-3.233 2.222-3.963 3.974-.413.994-.553 1.87-.504 3.158.048 1.233.179 1.715.824 3.025.349.708.523.94 1.27 1.685.477.475 1.094.997 1.37 1.16.773.453 1.974.87 2.768.961.41.047 6.55.082 14.704.082h13.998l.243-.231.242-.233V4.307a.862.862 0 00-.862-.863H30.67V2.49c0-1.01-.1-1.374-.428-1.549-.372-.2-.934-.005-1.111.384-.06.132-.104.624-.104 1.174v.946H12.433v-.916c0-1.02-.12-1.413-.484-1.578-.334-.152-.607-.118-.873.11zm-.285 5.029v.497c0 .332.067.683.337.876.193.138.409.21.55.182a1.15 1.15 0 00.496-.272c.202-.202.218-.282.246-1.25l.031-1.036h16.58v.993c0 .97.005.998.248 1.27.35.391.796.391 1.145 0 .244-.272.249-.3.249-1.27v-.993h3.63v6.136H7.16V5.086h3.63V6.09zM34.3 23.797V34.73H23.4c-8.71 0-10.884-.022-10.814-.108 1.171-1.435 1.884-2.68 2.189-3.824.283-1.06.265-2.677-.041-3.699-.833-2.78-2.988-4.768-5.745-5.297a7.095 7.095 0 00-1.037-.123 3.086 3.086 0 01-.597-.054l-.195-.052v-8.709h27.142v10.933zM15.056 16.62c-.293.206-.418.602-.289.915.226.546-.247.515 7.923.515h7.453l.24-.207a.763.763 0 000-1.142l-.24-.207H22.69c-6.395 0-7.479.018-7.634.127zm2.535 5.302c-.336.352-.322.814.037 1.15l.268.25h12.187l.294-.294c.402-.402.373-.825-.084-1.195-.17-.138-.637-.15-6.327-.151l-6.142-.002-.233.242zm-8.72 1.535c1.914.387 3.458 1.744 4.18 3.675.254.676.273.806.275 1.85.003 1.003-.021 1.192-.226 1.756-.349.962-.722 1.552-1.44 2.272-1.085 1.088-2.414 1.634-3.982 1.634-1.01 0-1.64-.15-2.566-.613-1.24-.62-2.188-1.671-2.76-3.06-.24-.58-.25-.662-.25-1.988 0-1.379.001-1.385.291-2.057 1.156-2.68 3.685-4.034 6.477-3.47zm1.38 3.146c-.118.093-.71.93-1.317 1.858-.605.929-1.126 1.687-1.157 1.684-.03-.002-.503-.65-1.05-1.44-.547-.79-1.139-1.591-1.316-1.78-.29-.31-.352-.337-.637-.291-.404.065-.623.266-.692.634-.064.344-.113.262 1.661 2.797 1.466 2.095 1.641 2.308 1.963 2.383.452.105.948-.534 3.316-4.278.538-.85.575-1.116.207-1.484-.3-.3-.662-.331-.977-.083zm9.97.513c-.367.342-.373.782-.016 1.139l.253.252h9.676l.269-.305c.147-.168.268-.4.268-.516 0-.115-.12-.347-.268-.515l-.269-.306H20.49l-.268.251z" fill="#FCFCFC"/></svg>