<svg width="38" height="38" viewBox="0 0 54 54" fill="none" xmlns="http://www.w3.org/2000/svg"><path d="M49.999 38.445v6.323a4.124 4.124 0 01-.363 1.706 4.219 4.219 0 01-1.038 1.417 4.348 4.348 0 01-1.538.887 4.429 4.429 0 01-1.775.205 43.503 43.503 0 01-18.658-6.47 41.645 41.645 0 01-12.972-12.646 41.036 41.036 0 01-6.637-18.272 4.115 4.115 0 01.208-1.725c.192-.555.5-1.064.904-1.496A4.322 4.322 0 019.577 7.36 4.42 4.42 0 0111.32 7h6.486a4.392 4.392 0 012.862 1.02 4.187 4.187 0 011.462 2.605 26.51 26.51 0 001.514 5.922c.29.755.353 1.575.181 2.363a4.184 4.184 0 01-1.154 2.084l-2.746 2.677c3.078 5.276 7.56 9.645 12.972 12.645l2.746-2.676a4.36 4.36 0 012.138-1.125 4.43 4.43 0 012.424.176c1.961.714 4 1.209 6.075 1.476a4.35 4.35 0 012.695 1.449 4.15 4.15 0 011.024 2.83z" stroke="#FCFCFC" stroke-width="2" stroke-linecap="round" stroke-linejoin="round"/></svg>