<svg width="70" height="70" fill="none" xmlns="http://www.w3.org/2000/svg"><rect x=".5" y=".5" width="69" height="69" rx="34.5" stroke="#FCFCFC"/><path fill-rule="evenodd" clip-rule="evenodd" d="M21.228 19.163l-.164.164v29.48h-.368c-.304 0-.399.029-.533.163-.162.162-.163.173-.163 1.433s.001 1.272.163 1.434l.164.163h32.345l.164-.163c.162-.162.163-.174.163-1.434 0-1.7.096-1.596-1.494-1.596h-1.167V47.7l.382-.158c.258-.106.514-.288.787-.56.63-.63.96-1.467.96-2.434 0-1.275-.614-2.392-1.61-2.933-.39-.21-.463-.227-1.02-.227-.542 0-.641.02-1.042.218-1.517.746-2.105 2.876-1.27 4.606.24.5.882 1.127 1.364 1.333l.382.164.001.549.001.548H46.08v-15.64l-.164-.164-.163-.163h-8.189V19.327l-.163-.164-.164-.163H21.391l-.163.163zm15.271 7.289v6.387h-1.064v-3.932l-.163-.163-.164-.163H30.44l-.163.163-.163.163v5.734l.163.163c.157.158.196.164 1.064.164h.902v1.064h-.902c-.868 0-.907.006-1.064.164l-.163.163v5.734l.163.163c.157.157.196.163 1.064.163h.902v1.065h-5.529l-.163.163-.163.163v4.996H22.13V20.065H36.5v6.388zm-12.61-5.16l-.163.164v5.733l.163.164.163.163h4.669l.164-.163.163-.164v-5.733l-.163-.164-.164-.163h-4.669l-.163.163zm6.387 0l-.163.164v5.733l.163.164.163.163h4.669l.164-.163.163-.164v-5.733l-.163-.164-.164-.163H30.44l-.163.163zm-2.292 3.03v2.13H24.79v-4.258h3.194v2.129zm6.386 0v2.13h-3.193v-4.258h3.193v2.129zm-10.48 4.423l-.163.163v5.734l.163.163.163.164h4.668l.164-.164.163-.163v-5.734l-.163-.163-.164-.163h-4.669l-.163.163zm4.095 3.03v2.13H24.79v-4.259h3.194v2.13zm6.386-.532v1.597h-.9c-.869 0-.908.006-1.065.163-.134.134-.163.23-.163.532v.37h-1.065v-4.259h3.193v1.597zm10.645 10.113v7.452H41.29v-.73c0-.94-.14-1.348-.628-1.836a2.099 2.099 0 00-3.003 0c-.488.488-.627.896-.627 1.836v.73h-3.726V33.903h11.709v7.452zM34.534 35.13l-.163.163V38.9l.163.163.163.164h3.605l.163-.163.163-.164v-3.605l-.163-.163-.163-.163h-3.605l-.163.163zm5.322 0l-.163.163V38.9l.163.163.163.164h3.605l.163-.163.164-.164v-3.605l-.163-.163-.164-.163H40.02l-.163.163zM23.89 36.196l-.163.163v5.734l.163.163.163.163h4.668l.164-.163.163-.163v-5.734l-.163-.163-.164-.164h-4.669l-.163.164zm13.675.9v1.065h-2.129v-2.129h2.129v1.065zm5.322 0v1.065h-2.129v-2.129h2.129v1.065zm-14.902 2.13v2.129H24.79v-4.258h3.194v2.129zm4.258 0v2.129h-1.065v-4.258h1.065v2.129zm2.292 1.228l-.163.163v3.605l.163.163.163.163h3.605l.163-.163.163-.163v-3.605l-.163-.163-.163-.164h-3.605l-.163.164zm5.322 0l-.163.163v3.605l.163.163.163.163h3.605l.163-.163.164-.163v-3.605l-.163-.163-.164-.164H40.02l-.163.164zm-2.292 1.965v1.065h-2.129v-2.129h2.129v1.064zm5.322 0v1.065h-2.129v-2.129h2.129v1.064zm7.273.072c.949.263 1.492 1.744 1.075 2.929-.643 1.829-2.602 1.551-2.965-.42-.192-1.043.328-2.203 1.113-2.483.315-.113.45-.117.777-.026zm-17.917 4.186v2.13H27.45v-4.259h4.791v2.13zm7.387.15c.446.225.596.569.596 1.361v.618h-2.129v-.617c0-.793.15-1.137.596-1.362.164-.082.374-.15.469-.15.094 0 .305.068.468.15zm12.305 3.576v.532h-30.87v-1.064h30.87v.532z" fill="#FCFCFC"/></svg>