<svg width="70" height="70" fill="none" xmlns="http://www.w3.org/2000/svg"><rect x=".5" y=".5" width="69" height="69" rx="34.5" stroke="#FCFCFC"/><path fill-rule="evenodd" clip-rule="evenodd" d="M26.316 20.177c-.209.18-.213.199-.237 1.135l-.026.952H22.27a.755.755 0 00-.492.182.614.614 0 00-.214.463l-.036 7.64-.038 7.92-.573.24a6.611 6.611 0 00-3.468 3.478c-.362.87-.484 1.637-.44 2.763.041 1.08.156 1.5.72 2.647.305.62.458.822 1.112 1.475.417.416.956.872 1.199 1.014.676.397 1.727.762 2.421.842.36.041 5.732.071 12.866.071L47.576 51l.212-.203.212-.203V23.018a.754.754 0 00-.755-.754h-3.783v-.836c0-.884-.088-1.202-.374-1.355-.326-.175-.817-.005-.973.336-.052.115-.09.545-.09 1.026v.829H27.503v-.802c0-.893-.105-1.236-.423-1.38-.293-.134-.532-.104-.764.095zm-.25 4.4v.372c0 .332.067.689.347.866.155.097.318.146.43.124.134-.027.329-.134.433-.238.177-.177.19-.247.216-1.095l.027-.906h14.506v.869c0 .85.005.874.217 1.111.306.343.697.343 1.003 0 .212-.237.217-.261.217-1.111V23.7h3.177v5.37h-23.75V23.7h3.177v.878zm20.573 15.496v9.566h-9.54c-7.622 0-9.523-.02-9.462-.095 1.024-1.256 1.648-2.345 1.915-3.346.247-.926.232-2.342-.036-3.236-.728-2.433-2.614-4.173-5.026-4.636a6.21 6.21 0 00-.908-.107 2.7 2.7 0 01-.523-.047l-.17-.045v-7.62h23.75v9.566zm-16.84-6.28c-.256.18-.366.526-.253.8.198.478-.216.45 6.932.45H43l.21-.18c.3-.258.3-.741 0-1l-.21-.18h-6.522c-5.595 0-6.544.015-6.679.11zm2.218 4.639c-.294.308-.282.712.032 1.005l.235.22h10.664l.257-.257c.352-.352.326-.723-.073-1.046-.15-.121-.558-.13-5.537-.133l-5.374-.001-.204.212zm-7.63 1.343c1.675.338 3.026 1.526 3.658 3.215.222.593.238.705.24 1.62.003.877-.019 1.043-.197 1.535-.306.843-.633 1.358-1.26 1.988-.95.953-2.113 1.43-3.485 1.43-.884 0-1.435-.132-2.245-.536-1.085-.542-1.915-1.462-2.415-2.678-.21-.508-.218-.578-.218-1.74 0-1.205 0-1.21.254-1.799 1.011-2.344 3.224-3.53 5.667-3.035zm1.208 2.753c-.104.081-.622.813-1.152 1.625-.53.813-.986 1.476-1.013 1.474-.027-.002-.44-.57-.919-1.26-.478-.692-.996-1.392-1.151-1.557-.255-.271-.309-.296-.558-.255-.354.057-.545.232-.605.555-.057.3-.1.229 1.453 2.447 1.283 1.833 1.436 2.02 1.717 2.085.396.092.83-.467 2.902-3.743.471-.745.503-.977.18-1.299-.262-.263-.578-.29-.854-.072zm8.723.449c-.32.3-.326.684-.014.996l.221.221h8.467l.235-.267c.13-.147.235-.35.235-.451 0-.102-.106-.304-.235-.451l-.235-.268h-8.439l-.235.22z" fill="#FCFCFC"/></svg>