<svg width="70" height="70" fill="none" xmlns="http://www.w3.org/2000/svg"><rect x=".5" y=".5" width="69" height="69" rx="34.5" stroke="#FCFCFC"/><path fill-rule="evenodd" clip-rule="evenodd" d="M28.428 17.064a.567.567 0 00-.25.217c-.046.083-.772 3.169-1.614 6.857a1123.1 1123.1 0 01-1.572 6.836c-.023.071-.09.13-.149.13-.058 0-1.184.698-2.5 1.551l-2.394 1.552-1.473 1.443c-1.76 1.723-1.735 1.665-1.016 2.392l.458.462.851.817 1.144 1.108 1.144 1.109.85.828 1.143 1.109 1.144 1.109.85.828 1.144 1.109 1.998 1.94 1.118 1.086 1.119 1.086.996.825s.321.197.646.437.848.596 1.163.792c.314.195.595.372.595.372l1.157.553s.253.066.491.145c.899.3 1.932.324 2.575.06.147-.06.6-.445 1.008-.853.861-.865.94-1.044.888-2.026-.027-.529-.077-.724-.307-1.203-.52-1.085-1.428-2.192-2.61-3.187-.615-.517-.664-.58-.812-1.046-.242-.76-.762-2.327-.762-2.327l-.58.165-.582.165 1.006 3.109.782.684c.818.715 1.598 1.527 1.979 2.06.306.428.678 1.208.678 1.421 0 .162-.022.172-.287.127-1.142-.196-2.654-.994-4.304-2.272-.465-.361-2.575-2.334-5.017-4.694-4.558-4.402 1.203 1.107-3.4-3.25-.628-.083-.984-.088-1.611-.17 3.648 3.968.353.542 4.232 4.298 2.586 2.505 4.54 4.334 5.031 4.712 1.604 1.233 3.078 2.06 4.268 2.393l.626.175-.382.366-.382.365-.554-.007c-.686-.008-1.493-.266-2.466-.79-1.933-1.04-2.448-1.492-9.604-8.423l-6.466-6.262.554-.539.554-.539 1.822 1.763c1.865 1.805.74.856 2.767 2.488.627.082.983.087 1.611.17-.97-.956-2.572-2.526-3.546-3.476-1.503-1.466-1.76-1.747-1.691-1.858.044-.07.99-.723 2.104-1.45l2.023-1.32.316.66c.953 1.991 2.34 3.685 3.462 4.23.975.473 2.06.48 3.282.019.321-.122.589-.214.594-.205.062.106.557 1.728.534 1.75-.017.017-.194.06-.393.096-.647.117-.891.398-.722.83.121.31.38.388 1.002.305.506-.068.61-.042.61.152 0 .012-.207.061-.46.11-.339.064-.49.134-.579.264a.597.597 0 00.136.804c.19.137.25.142.724.066.392-.063.532-.063.573.003.09.14.016.183-.399.236-.625.08-.89.43-.673.89.126.268.425.365.837.273.637-.143.83.436.83.436l.58-.165.581-.165s-.14-.447-.004-.497c.539-.198.288-1.1-.306-1.1-.283 0-.3-.127-.041-.331.457-.362.226-1.011-.366-1.028-.22-.006-.285-.038-.285-.141 0-.074.052-.134.115-.134.202 0 .421-.283.421-.544 0-.341-.263-.57-.655-.572h-.301l-.395-1.23-.395-1.23 1.438-3.329c1.693-3.92 1.57-3.82 1.57-3.82l-.947-.437s-.759 1.524-1.675 3.659l-1.514 3.528-.572.28c-1.756.857-2.985.397-4.438-1.663-.551-.781-1.217-2.032-1.174-2.206.017-.069.46-2.01.983-4.313.525-2.304.967-4.202.984-4.218.017-.017.328.053.691.156 1.252.352 2.925.724 5.401 1.202 1.366.264 2.494.49 2.507.502.013.012-.132.382-.322.821-.19.44-.87 2.252-.87 2.252l.945.438s5.014-11.37 5.014-11.646c0-.476-.653-.737-.986-.395-.078.08-.549 1.098-1.046 2.262a203.56 203.56 0 01-.924 2.143c-.018.025-9.277-2.137-9.373-2.188-.025-.014.034-.369.133-.789.24-1.023.236-1.268-.02-1.463-.216-.166-.351-.183-.616-.08zm4.873 4.576c2.336.549 4.305 1.022 4.375 1.052.113.048.083.16-.256.946-.212.49-.394.902-.406.914-.034.035-3.822-.685-5.358-1.018-1.587-.344-3.334-.8-3.432-.896-.04-.038.018-.45.137-.981.268-1.198.236-1.127.484-1.066.115.029 2.12.5 4.456 1.05zm10.889 5.97c-2.075.354-3.857 1.232-5.38 2.651-1.492 1.39-2.461 3.068-2.955 5.114-.22.915-.201 3.303.034 4.26a9.95 9.95 0 002.767 4.843 10.485 10.485 0 005.473 2.784c.936.162 2.551.161 3.52-.001 3.213-.538 5.979-2.525 7.439-5.344 1.417-2.736 1.453-6.036.094-8.783-1.232-2.49-3.52-4.405-6.232-5.217-1.52-.456-3.243-.567-4.76-.308zm3.038 1.12c1.032.16 1.02.153 1.216.747.097.29.359.883.583 1.317l.407.788-.465.634c-.256.348-.543.737-.638.863l-.173.229-.599-.095c-.842-.134-2.531-.127-3.376.013l-.7.117-.222-.247a40.576 40.576 0 01-.568-.65l-.344-.403.257-.585c.294-.666.613-1.65.69-2.124.04-.252.093-.337.245-.393.67-.247 2.701-.363 3.687-.21zm-5.454 1.526c-.138.405-.337.886-.44 1.069-.183.32-.211.337-.764.463-.522.118-1.766.285-1.82.244-.055-.044 1.373-1.387 1.783-1.676.424-.3 1.428-.878 1.473-.848.011.007-.093.344-.232.748zm9.44.05c.236.173.597.457.804.63l.375.315-.306.001c-.168 0-.576-.039-.907-.087-.584-.087-.607-.098-.798-.39-.187-.288-.629-1.18-.629-1.27 0-.081 1.033.485 1.461.8zm1.336 2.134l.846.001.306.501c.652 1.07 1.11 2.377 1.216 3.477l.05.516-.296.16c-.422.23-1.442.975-1.928 1.41l-.415.372-.82-.299-.822-.298-.049-.375c-.123-.94-.645-2.421-1.216-3.45l-.264-.475.462-.64c.255-.351.542-.743.639-.87l.176-.233.635.1c.349.056 1.015.102 1.48.102zm-10.54 1.033l.542.623-.252.491c-.495.964-.939 2.39-1.078 3.464l-.048.372-.948.362-.947.362-.572-.512a11.145 11.145 0 00-1.218-.92l-.646-.408.032-.409a9.294 9.294 0 01.824-3.167l.206-.456.74-.05c.807-.055 1.983-.222 2.347-.333a1.19 1.19 0 01.353-.056c.068.008.367.294.665.637zm5.486.924l.536.09.245.398c.534.867 1.17 2.679 1.17 3.333 0 .167-.07.353-.194.51-.435.554-2.302 1.91-3.04 2.207-.277.112-.305.109-.828-.107-1.011-.418-2.072-1.154-2.682-1.863-.313-.362-.316-.372-.269-.81.122-1.133.93-3.388 1.292-3.608.385-.234 2.715-.327 3.77-.15zm7.337 4.556c-.06.334-.195.869-.301 1.189-.202.608-.86 1.956-.954 1.956-.064 0-.352-1.34-.41-1.906l-.039-.383.436-.413c.379-.359 1.33-1.1 1.364-1.062.007.007-.036.286-.096.62zm-17.261.276c.281.22.612.503.734.629.21.217.22.253.176.704-.06.619-.22 1.462-.28 1.462-.051 0-.448-.744-.692-1.299-.146-.331-.535-1.663-.535-1.83 0-.115.073-.074.597.334zm13.597.477l.765.282.052.508c.065.63.25 1.456.499 2.225l.19.585-.37.368c-.204.202-.641.567-.972.81-.712.523-2.163 1.24-2.304 1.137-.722-.524-1.38-.947-1.894-1.22l-.629-.335.021-.965c.014-.647.051-.984.113-1.022.05-.032.392-.232.76-.446.926-.537 1.49-.95 2.224-1.625.345-.318.661-.579.703-.58.042-.002.421.123.842.278zm-7.642 1.476c.368.233.93.534 1.248.668.318.134.57.262.56.283-.011.022-.02.453-.02.96v.92l-.593.273c-.644.297-1.419.751-1.878 1.1l-.29.221-.475-.205c-.74-.318-1.674-.94-2.339-1.557l-.607-.563.11-.35c.185-.59.27-.985.4-1.864l.126-.843.901-.35.901-.348.643.616c.354.338.945.806 1.313 1.04zm2.797 4.117c.488.24 1.306.743 1.267.78-.013.012-.398.06-.857.105-.605.06-1.064.06-1.662.002-1.074-.105-1.134-.128-.813-.323.215-.131 1.512-.782 1.575-.79.012-.002.232.1.49.226z" fill="#FCFCFC"/></svg>