<svg width="70" height="70" fill="none" xmlns="http://www.w3.org/2000/svg"><rect x=".5" y=".5" width="69" height="69" rx="34.5" stroke="#FCFCFC"/><path fill-rule="evenodd" clip-rule="evenodd" d="M26.492 21.188c-1.6.246-2.6.481-4.502 1.058l-1.693.514-.995-.272c-2.276-.623-2.661-.68-3.16-.47-.525.22-.949.836-.949 1.375 0 .203.184 1.061.408 1.908l.408 1.539s-.243.894-.37 1.474c-.709 3.237-.992 6.09.019 9.762.139.504.402 1.278.402 1.278l-.302 1.304c-.49 2.11-.501 2.274-.194 2.825.517.925 1.043.99 3.322.41l1.434-.366 1.62.496c.891.273 1.64.514 1.666.535.025.02.006.455-.041.965-.081.87-.105.928-.376.928-.159 0-.428.064-.598.142-.806.37-.314 2.209.819 3.064l.395.299 13.864.036c7.626.02 14.105.002 14.397-.04.394-.057.677-.21 1.087-.59.663-.613.886-1.095.886-1.916 0-.688-.27-.995-.874-.995-.312 0-.335-.04-.41-.707-.296-2.6-1.277-5.122-2.85-7.33-.64-.897-2.95-3.277-3.183-3.277-.057 0-.13-1.037-.165-2.306-.053-2.005-.112-2.537-.454-4.079-.427-1.93-.428-1.86.04-3.62.526-1.982.463-2.43-.563-3.046-.794-.475-2.35.21-2.35.21l-1.847.467-1.338-.389c-1.594-.462-3.173-.787-5.49-1.127-2.061-.302-6.28-.333-8.063-.06zm8.123 1.723c1.822.24 3.364.564 5.24 1.105l1.513.435 1.711-.44c.941-.241 1.734-.415 1.763-.387.028.029-.148.782-.393 1.675l-.444 1.622.37 1.556c.374 1.57.624 3.501.624 4.82v.715l-.96-.42c-1.113-.485-2.918-.994-3.94-1.11l-.712-.081.621-.692c1.025-1.143 1.167-1.84.57-2.817-.437-.716-.998-.901-2.59-.857-1.283.036-1.419.064-1.813.366-.502.386-.827 1.013-.827 1.596 0 .47.486 1.31 1.083 1.873.211.2.383.4.383.445 0 .046-.29.117-.643.159-1.61.19-4.14 1.068-4.902 1.7-.285.237-.44.471-.44.665 0 .33.389.79.669.79.1 0 .721-.22 1.381-.487 2.19-.889 3.912-1.191 6.073-1.067 6.212.358 11.395 5.336 12.102 11.623l.084.753H25.13l.105-.83c.243-1.93 1.103-4.221 2.19-5.836.287-.426 1.17-1.447 1.963-2.27 1.501-1.556 1.544-1.64 1.099-2.163-.444-.52-1.267-.1-2.729 1.39-1.402 1.429-2.867 3.81-3.456 5.62-.116.355-.273.646-.35.646-.075 0-.92-.26-1.875-.579l-1.738-.579-1.62.391c-.89.215-1.644.365-1.676.333-.032-.032.11-.816.315-1.741l.373-1.683-.285-.761c-.513-1.373-.704-2.756-.694-5.035.01-2.26.104-3.082.596-5.165l.319-1.353-.433-1.63c-.27-1.015-.383-1.629-.298-1.629.075 0 .864.195 1.754.433l1.618.432 1.321-.374c1.657-.469 4.4-1.04 5.841-1.218.605-.075 1.265-.158 1.466-.186.681-.095 4.266.061 5.68.247zm-10.194 2.31c-.69.694-1.23 2.326-1.132 3.419.074.821.367 1.491 1.055 2.411.772 1.033.8 1.823.119 3.274-.421.896-.424.934-.1 1.349.506.647 1.173.268 1.783-1.013.263-.55.34-.92.382-1.811.061-1.303-.121-1.855-.987-2.984-.494-.645-.515-.708-.515-1.544 0-.721.07-1.024.402-1.762.427-.95.41-1.234-.091-1.504-.362-.195-.602-.151-.916.165zm5.133.122c-.886.947-.895 2.422-.022 3.577.45.596.492.88.207 1.43-.458.885-.228 1.59.519 1.59.639 0 1.303-1.066 1.303-2.09 0-.7-.204-1.279-.665-1.888-.372-.49-.396-.972-.082-1.677.262-.588.22-.913-.15-1.174-.396-.28-.688-.218-1.11.232zm21.336-.221c-.372.262-.347.68.108 1.768.529 1.267.472 1.96-.242 2.935-.706.966-.981 1.597-1.07 2.459-.093.885.232 2.105.8 3.003.425.673.831.842 1.293.537.404-.266.398-.757-.019-1.582a3.782 3.782 0 01-.38-1.443c-.057-.788-.048-.816.499-1.62.955-1.403 1.06-1.688 1.06-2.851 0-1.232-.295-2.142-.941-2.902-.457-.537-.688-.6-1.108-.304zm-12.324 4.702c.846-.402.914.042.136.88l-.556.598-.544-.586c-.78-.84-.74-1.24.092-.904.433.175.527.176.872.012zm13.213 18.472c-.288.124-23.766.425-26.02.005 2.688-.007 4.773-.091 12.399-.098 7.826-.008 13.758.033 13.62.093z" fill="#FCFCFC"/></svg>