<svg width="70" height="70" fill="none" xmlns="http://www.w3.org/2000/svg"><rect x=".5" y=".5" width="69" height="69" rx="34.5" stroke="#FCFCFC"/><path fill-rule="evenodd" clip-rule="evenodd" d="M27.955 20.355c-1.45.394-2.213.724-3.463 1.496-2.937 1.816-5.073 4.72-6.118 8.317-.345 1.186-.372 1.464-.374 3.837-.002 2.921.172 3.843 1.128 5.965.73 1.62 1.4 2.643 2.583 3.933 2.45 2.675 5.422 4.066 8.992 4.21 1.882.074 3.207-.143 4.986-.818.592-.225 1.076-.346 1.076-.27 0 .077-.085.312-.19.523-.714 1.448-.693 2.41.068 3.075.553.484 1.454.505 1.962.045.322-.292 1.361-2.614 3.148-7.031l.53-1.311 1.179.087c1.512.111 2.88-.193 4.406-.979.908-.468 1.372-.84 2.44-1.954 1.168-1.22 1.395-1.543 2.003-2.857.855-1.845 1.118-3.054 1.118-5.136 0-2.838-.785-4.898-2.594-6.808-1.64-1.732-3.183-2.399-5.551-2.399-1.553 0-2.923.36-4.217 1.107l-.683.394-.992-.815c-1.711-1.408-3.54-2.318-5.523-2.752-1.533-.336-4.415-.267-5.914.14zm4.941 1.083c.588.084 1.115.2 1.17.256.116.116-2.492 1.297-2.865 1.297-.133 0-.878-.265-1.656-.59-1.537-.642-1.563-.733-.272-.956 1.045-.18 2.39-.183 3.623-.007zm5.478 2.443c.396.315.755.63.797.701.042.07-.193.43-.522.796a10.77 10.77 0 00-1.893 2.94c-.475 1.09-.947 2.807-.947 3.446 0 .255-.057.464-.127.464s-.962-.707-1.983-1.572l-1.858-1.573.037-2.417.038-2.417 2.117-.902 2.117-.903.751.432c.413.237 1.076.69 1.473 1.005zm-9.77-.388l1.878.81v4.785l-1.842 1.57c-1.013.864-1.92 1.57-2.015 1.57-.292 0-4.402-1.455-4.486-1.588-.043-.07-.253-.952-.467-1.962l-.388-1.837.39-.585c.58-.87 2.361-2.551 3.357-3.167 1.073-.663 1.104-.66 3.573.404zm18.582.494c1.824.586 3.262 1.946 4.132 3.907.562 1.267.745 2.19.743 3.737-.003 1.611-.28 2.79-1.022 4.363-.582 1.233-1.834 2.917-2.163 2.91-.088-.001-2.741-1.204-5.896-2.674l-5.737-2.671-.04-.864c-.112-2.38 1.227-5.263 3.317-7.146 1.792-1.613 4.518-2.252 6.666-1.562zM20.58 29.874l.241 1.198-.736.964c-.64.838-.742.921-.782.637-.058-.422.34-2.28.695-3.246.152-.413.29-.752.308-.752.018 0 .14.54.274 1.198zm12.488 2.03c.898.765 1.636 1.454 1.641 1.532.005.078-.213 1.118-.484 2.31l-.493 2.167H28.6l-.506-2.118c-.28-1.164-.486-2.215-.46-2.335.07-.328 3.396-3.108 3.614-3.021.103.04.922.7 1.82 1.465zm-9.007.96c1.09.374 2.035.73 2.101.794.11.105 1.163 4.39 1.173 4.77.006.225-2.031 3.102-2.226 3.143-.088.018-1.02-.11-2.072-.286l-1.911-.32-.427-.742c-.519-.903-1.228-3.09-1.348-4.158l-.087-.781 1.255-1.607c.69-.884 1.325-1.58 1.409-1.549.084.032 1.044.364 2.133.737zm11.932 2.639c.145.752.89 2.544 1.344 3.236.241.366.768 1.01 1.17 1.43.402.42.701.845.665.945-.08.217-1.979.576-2.13.402-.39-.447-2.054-2.92-2.054-3.051 0-.362.739-3.394.827-3.394.052 0 .132.194.178.432zm6.953 2.301c2.95 1.376 4.55 2.192 4.44 2.266-.435.29-1.715.702-2.584.83-3.158.466-6.104-1.533-7.216-4.898l-.26-.786.504.219c.277.12 2.58 1.187 5.116 2.37zm-7.973 3.08l1.1 1.551-1.025 1.917c-.563 1.055-1.117 1.998-1.23 2.096-.246.212-3.21.36-4.316.217l-.738-.096-1.243-2.072-1.243-2.072 1.092-1.546 1.092-1.545h5.411l1.1 1.55zm5.888 1.056c0 .16-1.522 3.896-2.775 6.81-.31.721-.64 1.07-.64.678 0-.521 3.007-7.678 3.226-7.678a.19.19 0 01.19.19zm-17.02.875c.668.114 1.24.233 1.271.266.156.162 1.654 2.724 1.615 2.763-.068.072-1.437-.673-2.12-1.154-.66-.465-2.088-1.761-2.162-1.964-.059-.158-.046-.157 1.396.089zm14.485.392c-.317 1.065-.732 1.624-1.537 2.07-.448.249-.848.452-.888.452-.04 0 .238-.58.618-1.29.68-1.272.94-1.525 1.586-1.543.266-.008.301.041.221.31z" fill="#FCFCFC"/></svg>