<svg width="70" height="70" fill="none" xmlns="http://www.w3.org/2000/svg"><rect x=".5" y=".5" width="69" height="69" rx="34.5" stroke="#FCFCFC"/><path fill-rule="evenodd" clip-rule="evenodd" d="M33.104 14.094a7.344 7.344 0 00-4.99 3.853c-.18.349-.415.925-.523 1.28l-.195.646-.006 3c-.006 2.905-.001 3.02.156 3.58.383 1.358 1.363 2.913 2.32 3.68l.443.355v1.824c0 1.375-.023 1.84-.09 1.89-.05.037-.79.206-1.645.377-3.537.703-5.767 1.221-6.36 1.478-1.329.575-2.67 1.646-3.384 2.704-.36.534-.812 1.43-.978 1.937-.228.7-1.852 9.3-1.852 9.807 0 .028.084.15.187.273l.187.222H52.7l.15-.19a.791.791 0 00.15-.452c0-.291-.813-4.797-1.371-7.606-.532-2.674-.929-3.526-2.275-4.885-.769-.776-1.437-1.254-2.335-1.669-.58-.268-2.747-.8-6.268-1.538a187.82 187.82 0 01-1.89-.402c-.127-.035-.185-.925-.158-2.392l.025-1.312.694-.677c1.025-.999 1.644-2.022 2.03-3.353.162-.563.166-.652.166-3.686v-3.11l-.207-.614c-.417-1.248-1.248-2.55-2.124-3.33-.773-.69-1.855-1.272-2.98-1.606-.65-.193-2.502-.242-3.203-.085zm2.153 1.19c.823.08 1.25.202 1.917.55 1.124.585 2.064 1.518 2.604 2.585.31.614.547 1.326.468 1.405-.066.066-11.24.063-11.4-.003-.118-.048-.11-.098.09-.646.324-.89.742-1.54 1.439-2.236.686-.688 1.356-1.123 2.159-1.404.91-.318 1.49-.371 2.723-.251zm4.728 5.921c.159.1-.934 1.157-1.447 1.4-.669.316-1.168.353-4.45.328l-3.02-.023-.434-.202c-.559-.26-1.776-1.428-1.572-1.51.19-.074 10.805-.068 10.923.007zm-9.779 2.75c.398.148.494.151 4.392.132l3.985-.02.398-.203c.218-.112.636-.438.928-.723l.53-.52-.036 1.59c-.04 1.814-.094 2.095-.596 3.11a5.954 5.954 0 01-3.537 3.045c-.782.256-2.142.32-2.953.14a6.094 6.094 0 01-4.293-3.591c-.291-.7-.36-1.186-.412-2.876l-.042-1.402.615.583c.457.432.72.622 1.021.735zm2.957 7.79c1.086.243 2.736.111 3.844-.306l.456-.171v4.034l-.524.412c-.98.771-1.872 1.037-3 .895-.698-.088-1.213-.345-1.856-.926l-.533-.481-.006-1.963-.007-1.963.56.178c.307.098.787.229 1.066.291zm-.902 5.61c.668.32 1.457.486 2.29.485 1.49-.004 2.426-.417 3.721-1.644.35-.332.693-.597.772-.597.078 0 .311.04.518.087l.375.087-.032.799c-.026.631-.069.882-.205 1.196-.15.347-2.343 3.364-2.775 3.817l-.157.165-.341-.26c-1.155-.882-2.519-.906-3.662-.064-.376.276-.467.316-.546.235a84.74 84.74 0 01-1.4-1.828c-1.505-1.996-1.586-2.16-1.646-3.3l-.041-.765.498-.109.498-.109.796.773c.634.615.908.826 1.337 1.032zm-4.332-.485c.035.733.072.93.242 1.308.117.26.857 1.326 1.773 2.556l1.573 2.11.038.889c.037.851.05.91.307 1.4.33.628.809 1.088 1.459 1.4.27.13.516.27.546.31.029.04.053.373.054.74.002 1.03.048 1.054 2.002 1.018 1.207-.023 1.245-.028 1.433-.204l.193-.18-.024-2.676-.024-2.675 1.208-1.61c1.348-1.795 2.006-2.749 2.19-3.17.08-.18.14-.582.17-1.127.027-.466.063-.861.082-.879.04-.039 3.163.644 4.261.93 1.317.345 2.164.817 3.04 1.694a6.468 6.468 0 011.714 3.008c.24.956 1.063 5.59 1.004 5.648-.03.03-1.638.056-3.575.058l-3.52.003-.036-2.808-.036-2.808-.17-.139c-.273-.22-.701-.153-.93.145-.066.087-.088 1.076-.09 4.074l-.002 3.959-8.293-.019-8.292-.018-.037-4.037-.036-4.038-.17-.138c-.272-.22-.7-.153-.93.145-.065.085-.088.823-.09 2.89l-.002 2.777-3.544-.038c-1.95-.02-3.56-.053-3.58-.073-.037-.037.737-4.37.981-5.492.422-1.94 1.94-3.765 3.766-4.524.294-.122.957-.323 1.474-.447 1.865-.446 3.687-.852 3.758-.838.04.008.09.394.113.876zm7.176 5.326c.392.117.944.655 1.058 1.031.055.18.102 1.019.124 2.227l.037 1.937-.569-.021-.568-.021-.037-.655c-.047-.856-.141-1.005-.702-1.115-.587-.116-.81-.214-1.126-.5-.395-.357-.51-.617-.513-1.165-.003-.572.116-.942.415-1.283.423-.481 1.16-.652 1.881-.435zM34.1 43.369c-.248.248-.235.57.034.84.511.511 1.272-.043.933-.68-.203-.381-.669-.459-.967-.16zm-9.138 5.834v.588l-3.71-.035c-2.041-.02-3.744-.056-3.785-.08-.05-.032-.047-.192.007-.497.07-.386.106-.457.261-.5.1-.028 1.766-.054 3.704-.058l3.523-.007v.589zm26.578-.058c.054.272.08.514.055.538-.023.024-1.725.045-3.78.047l-3.739.005-.02-.561-.022-.561 3.704.018 3.704.02.098.494z" fill="#FCFCFC"/></svg>